<svg width="864" height="89" viewBox="0 0 864 89" fill="none" xmlns="http://www.w3.org/2000/svg">
<path d="M843.202 52.7299C849.66 52.7299 854.827 54.6257 858.702 58.4174C862.202 61.8341 863.952 65.9799 863.952 70.8549C863.952 75.6882 862.202 79.8341 858.702 83.2924C854.785 87.0424 849.619 88.9174 843.202 88.9174H773.64V79.0424H843.202C846.702 79.0424 849.431 78.1882 851.39 76.4799C853.14 74.9799 854.015 73.1049 854.015 70.8549C854.015 68.6049 853.14 66.7299 851.39 65.2299C849.431 63.5216 846.702 62.6674 843.202 62.6674H794.452C787.994 62.6674 782.827 60.8549 778.952 57.2299C775.41 53.9382 773.64 49.9799 773.64 45.3549C773.64 40.6882 775.41 36.7091 778.952 33.4174C782.827 29.7924 787.994 27.9799 794.452 27.9799H855.515V37.9174H794.452C790.91 37.9174 788.16 38.6882 786.202 40.2299C784.452 41.6049 783.577 43.3132 783.577 45.3549C783.577 47.3549 784.452 49.0424 786.202 50.4174C788.16 51.9591 790.91 52.7299 794.452 52.7299H843.202Z" fill="black"/>
<path d="M690.265 48.8549C690.265 43.1049 692.306 38.1882 696.39 34.1049C700.473 30.0216 705.39 27.9799 711.14 27.9799H764.827V37.9174H711.14C708.14 37.9174 705.556 38.9799 703.39 41.1049C701.265 43.2299 700.202 45.8132 700.202 48.8549V88.9174H690.265V48.8549Z" fill="black"/>
<path d="M653.14 27.9799C658.89 27.9799 663.806 30.0216 667.89 34.1049C671.973 38.1882 674.015 43.1049 674.015 48.8549V68.0424C674.015 73.7924 671.973 78.7091 667.89 82.7924C663.806 86.8757 658.89 88.9174 653.14 88.9174H604.39C598.64 88.9174 593.723 86.8757 589.64 82.7924C585.556 78.7091 583.515 73.7924 583.515 68.0424V48.8549C583.515 43.1049 585.556 38.1882 589.64 34.1049C593.723 30.0216 598.64 27.9799 604.39 27.9799H653.14ZM664.077 48.8549C664.077 45.8132 663.015 43.2299 660.89 41.1049C658.723 38.9799 656.14 37.9174 653.14 37.9174H604.39C601.348 37.9174 598.765 38.9799 596.64 41.1049C594.473 43.2299 593.39 45.8132 593.39 48.8549V68.0424C593.39 71.0841 594.473 73.6674 596.64 75.7924C598.765 77.9591 601.348 79.0424 604.39 79.0424H653.14C656.14 79.0424 658.723 77.9591 660.89 75.7924C663.015 73.6674 664.077 71.0841 664.077 68.0424V48.8549Z" fill="black"/>
<path d="M546.39 27.9799C552.14 27.9799 557.056 30.0216 561.14 34.1049C565.223 38.1882 567.265 43.1049 567.265 48.8549V68.0424C567.265 73.7924 565.223 78.7091 561.14 82.7924C557.056 86.8757 552.14 88.9174 546.39 88.9174H497.64C491.89 88.9174 486.973 86.8757 482.89 82.7924C478.806 78.7091 476.765 73.7924 476.765 68.0424V48.8549C476.765 43.1049 478.806 38.1882 482.89 34.1049C486.973 30.0216 491.89 27.9799 497.64 27.9799H546.39ZM557.327 48.8549C557.327 45.8132 556.265 43.2299 554.14 41.1049C551.973 38.9799 549.39 37.9174 546.39 37.9174H497.64C494.598 37.9174 492.015 38.9799 489.89 41.1049C487.723 43.2299 486.64 45.8132 486.64 48.8549V68.0424C486.64 71.0841 487.723 73.6674 489.89 75.7924C492.015 77.9591 494.598 79.0424 497.64 79.0424H546.39C549.39 79.0424 551.973 77.9591 554.14 75.7924C556.265 73.6674 557.327 71.0841 557.327 68.0424V48.8549Z" fill="black"/>
<path d="M460.452 63.8549C460.452 70.7716 457.994 76.6883 453.077 81.6049C448.161 86.4799 442.244 88.9174 435.327 88.9174H391.015C385.182 88.9174 380.202 86.8549 376.077 82.7299C371.952 78.6466 369.89 73.6883 369.89 67.8549V49.0424C369.89 43.2508 371.952 38.2924 376.077 34.1674C380.202 30.0424 385.182 27.9799 391.015 27.9799H435.327C440.952 27.9799 446.015 29.6883 450.515 33.1049V0.479919H460.452V63.8549ZM435.327 79.0424C439.494 79.0424 443.077 77.5424 446.077 74.5424C449.036 71.5841 450.515 68.0216 450.515 63.8549V53.0424C450.515 48.8758 449.036 45.3133 446.077 42.3549C443.077 39.3966 439.494 37.9174 435.327 37.9174H391.015C387.932 37.9174 385.307 39.0008 383.14 41.1674C380.932 43.3341 379.827 45.9591 379.827 49.0424V67.8549C379.827 70.9383 380.932 73.5633 383.14 75.7299C385.307 77.9383 387.932 79.0424 391.015 79.0424H435.327Z" fill="black"/>
<path d="M294.765 27.9799C299.015 27.9799 302.598 29.1466 305.515 31.4799C308.431 33.8132 309.89 36.6882 309.89 40.1049V40.3549C309.89 45.0632 305.431 49.1049 296.515 52.4799L239.515 74.1674C236.931 75.1257 235.348 75.8966 234.765 76.4799C234.431 76.8132 234.265 77.1257 234.265 77.4174C234.265 77.7507 234.431 78.0841 234.765 78.4174C235.473 78.8757 236.536 79.1049 237.952 79.1049C238.244 79.1049 238.577 79.0841 238.952 79.0424H307.827V88.9174H238.952C234.702 88.9174 231.098 87.7507 228.14 85.4174C225.223 83.0841 223.765 80.2091 223.765 76.7924V76.5424C223.765 73.4174 225.161 70.8132 227.952 68.7299C229.577 67.5632 232.265 66.2716 236.015 64.8549L237.202 64.4174L293.015 43.2299C296.973 41.6049 298.952 40.3341 298.952 39.4174V39.2924C298.702 38.3757 297.306 37.9174 294.765 37.9174H225.89V27.9799H294.765Z" fill="black"/>
<path d="M196.89 27.9799H206.827V88.9174H196.89V27.9799ZM196.89 0.417419H206.89V10.4174H196.89V0.417419Z" fill="black"/>
<path d="M112.89 48.8549C112.89 43.1049 114.931 38.1882 119.015 34.1049C123.098 30.0216 128.015 27.9799 133.765 27.9799H187.452V37.9174H133.765C130.765 37.9174 128.181 38.9799 126.015 41.1049C123.89 43.2299 122.827 45.8132 122.827 48.8549V88.9174H112.89V48.8549Z" fill="black"/>
<path fill-rule="evenodd" clip-rule="evenodd" d="M96.3593 63.0282C96.3593 54.8198 93.0885 48.1948 86.5468 43.1532C92.8385 38.5698 95.9843 32.1948 95.9843 24.0282C95.9843 17.6115 93.901 12.1532 89.7343 7.65317C85.0676 2.65317 78.901 0.153168 71.2343 0.153168H16.2343C11.8176 0.153168 8.04681 1.71567 4.92181 4.84067C1.75515 7.96567 0.171814 11.7573 0.171814 16.2157V50.2119L46.3073 18.5821V46.4711L0.171814 78.1729V88.5907H71.2343C78.151 88.5907 84.0676 86.1532 88.9843 81.2782C93.901 76.3615 96.3593 70.4448 96.3593 63.5282V63.0282Z" fill="black"/>
<path fill-rule="evenodd" clip-rule="evenodd" d="M0.171875 50.3022L58.7797 27.6531V46.7324V46.8103V65.8896L1.8824 87.9276C1.28178 88.1544 0.711602 88.3754 0.171875 88.5906V69.5114V69.3815V50.3022Z" fill="#FF6600"/>
</svg>
