<svg width="251" height="231" viewBox="0 0 251 231" fill="none" xmlns="http://www.w3.org/2000/svg">
<path fill-rule="evenodd" clip-rule="evenodd" d="M250.172 163.694C250.172 142.36 241.671 125.14 224.668 112.036C241.021 100.124 249.197 83.5544 249.197 62.3282C249.197 45.6505 243.782 31.4636 232.953 19.7675C220.824 6.77192 204.796 0.274109 184.87 0.274109H41.9197C30.4404 0.274109 20.6397 4.33524 12.5175 12.4575C4.28704 20.5798 0.171814 30.4348 0.171814 42.0225V130.383L120.082 48.1731V120.66L0.171814 203.057V230.134H184.87C202.847 230.134 218.225 223.799 231.004 211.128C243.782 198.349 250.172 182.971 250.172 164.994V163.694Z" fill="black"/>
<path fill-rule="evenodd" clip-rule="evenodd" d="M0.171875 130.618L152.499 71.75V121.339V121.542V171.131L4.6177 228.411C3.05661 229 1.57467 229.575 0.171875 230.134V180.545V180.207V130.618Z" fill="#FF6600"/>
</svg>
